<?xml version="1.0" encoding="UTF-8"?>
<!DOCTYPE svg PUBLIC "-//W3C//DTD SVG 1.1//EN" "http://www.w3.org/Graphics/SVG/1.1/DTD/svg11.dtd">
<svg xmlns="http://www.w3.org/2000/svg" version="1.1" width="661px" height="223px" style="shape-rendering:geometricPrecision; text-rendering:geometricPrecision; image-rendering:optimizeQuality; fill-rule:evenodd; clip-rule:evenodd" xmlns:xlink="http://www.w3.org/1999/xlink">
<g><path style="opacity:1" fill="#f7f9fb" d="M -0.5,-0.5 C 219.833,-0.5 440.167,-0.5 660.5,-0.5C 660.5,73.8333 660.5,148.167 660.5,222.5C 581.167,222.5 501.833,222.5 422.5,222.5C 431.243,209.884 433.743,196.218 430,181.5C 423.275,173.244 415.108,171.411 405.5,176C 402.567,178.264 400.4,181.098 399,184.5C 397.167,181.5 395.333,178.5 393.5,175.5C 391.955,174.548 390.288,174.215 388.5,174.5C 388.5,188.833 388.5,203.167 388.5,217.5C 392.5,217.5 396.5,217.5 400.5,217.5C 400.334,208.827 400.5,200.16 401,191.5C 401.9,186.937 404.067,183.104 407.5,180C 411.793,178.798 415.293,179.965 418,183.5C 420.52,196.814 419.354,209.814 414.5,222.5C 276.167,222.5 137.833,222.5 -0.5,222.5C -0.5,148.167 -0.5,73.8333 -0.5,-0.5 Z"/></g>
<g><path style="opacity:1" fill="#8c8f59" d="M 358.5,6.5 C 360.199,6.33982 361.866,6.50649 363.5,7C 368,11.5 372.5,16 377,20.5C 377.667,22.5 377.667,24.5 377,26.5C 372.319,31.3485 367.485,36.0152 362.5,40.5C 358.002,32.5022 351.668,26.3355 343.5,22C 348.703,16.9646 353.703,11.798 358.5,6.5 Z"/></g>
<g><path style="opacity:1" fill="#8b8e57" d="M 322.5,23.5 C 340.76,21.8759 353.26,29.5426 360,46.5C 362.872,66.6086 354.706,79.7752 335.5,86C 315.064,87.5547 302.564,78.388 298,58.5C 297.735,40.9316 305.902,29.265 322.5,23.5 Z"/></g>
<g><path style="opacity:1" fill="#f1f4f3" d="M 341.5,39.5 C 342.833,39.5 344.167,39.5 345.5,39.5C 343.371,44.1502 340.205,48.1502 336,51.5C 335.522,55.9282 334.355,60.0949 332.5,64C 333.031,66.8166 333.364,69.65 333.5,72.5C 332.178,72.67 331.011,72.3366 330,71.5C 329.704,68.2942 329.204,65.1275 328.5,62C 326.895,60.6123 325.395,59.1123 324,57.5C 322.807,50.6922 325.473,48.0255 332,49.5C 335.371,46.2975 338.538,42.9641 341.5,39.5 Z"/></g>
<g><path style="opacity:1" fill="#8c8f59" d="M 295.5,69.5 C 300.642,77.1359 307.309,83.3026 315.5,88C 310.833,92.6667 306.167,97.3333 301.5,102C 299.167,102.667 296.833,102.667 294.5,102C 290.333,97.8333 286.167,93.6667 282,89.5C 281.333,87.5 281.333,85.5 282,83.5C 286.703,78.9645 291.203,74.2979 295.5,69.5 Z"/></g>
<g><path style="opacity:1" fill="#fbb65b" d="M 36.5,119.5 C 231.5,119.333 426.5,119.5 621.5,120C 626.833,122 626.833,124 621.5,126C 426.5,126.667 231.5,126.667 36.5,126C 32.6054,123.846 32.6054,121.679 36.5,119.5 Z"/></g>
<g><path style="opacity:1" fill="#fbb04b" d="M 36.5,134.5 C 232.167,134.333 427.834,134.5 623.5,135C 626.167,136.667 626.167,138.333 623.5,140C 427.833,140.667 232.167,140.667 36.5,140C 32.6491,138.193 32.6491,136.36 36.5,134.5 Z"/></g>
<g><path style="opacity:1" fill="#fbb250" d="M 148.5,157.5 C 155.164,157 158.331,160 158,166.5C 154.614,170.888 150.614,171.555 146,168.5C 143.6,163.99 144.433,160.323 148.5,157.5 Z"/></g>
<g><path style="opacity:1" fill="#fab04a" d="M 217.5,158.5 C 221.5,158.5 225.5,158.5 229.5,158.5C 229.5,163.833 229.5,169.167 229.5,174.5C 233.833,174.5 238.167,174.5 242.5,174.5C 242.5,176.167 242.5,177.833 242.5,179.5C 238.167,179.5 233.833,179.5 229.5,179.5C 229.5,192.167 229.5,204.833 229.5,217.5C 225.5,217.5 221.5,217.5 217.5,217.5C 217.5,204.833 217.5,192.167 217.5,179.5C 214.833,179.5 212.167,179.5 209.5,179.5C 209.5,177.833 209.5,176.167 209.5,174.5C 212.167,174.5 214.833,174.5 217.5,174.5C 217.5,169.167 217.5,163.833 217.5,158.5 Z"/></g>
<g><path style="opacity:1" fill="#f9c67e" d="M 472.5,158.5 C 472.83,165.532 472.497,172.532 471.5,179.5C 470.893,179.376 470.56,179.043 470.5,178.5C 471.167,171.833 471.833,165.167 472.5,158.5 Z"/></g>
<g><path style="opacity:1" fill="#fbb14e" d="M 472.5,158.5 C 476.5,158.5 480.5,158.5 484.5,158.5C 484.5,178.167 484.5,197.833 484.5,217.5C 482.801,217.66 481.134,217.494 479.5,217C 477.542,214.252 475.709,211.418 474,208.5C 469.774,217.03 462.941,220.197 453.5,218C 446.763,216.264 442.263,212.097 440,205.5C 435.112,187.919 441.445,177.253 459,173.5C 463.737,173.348 467.571,175.015 470.5,178.5C 470.56,179.043 470.893,179.376 471.5,179.5C 472.497,172.532 472.83,165.532 472.5,158.5 Z"/></g>
<g><path style="opacity:1" fill="#fbb250" d="M 122.5,173.5 C 126.915,173.305 131.249,173.805 135.5,175C 137.303,175.637 138.636,176.803 139.5,178.5C 137.333,182.167 135.167,185.833 133,189.5C 131.71,185.76 129.543,182.593 126.5,180C 123.653,179.056 121.153,179.556 119,181.5C 117.725,183.717 116.725,186.051 116,188.5C 115.5,198.161 115.334,207.828 115.5,217.5C 111.167,217.5 106.833,217.5 102.5,217.5C 102.5,203.167 102.5,188.833 102.5,174.5C 104.199,174.34 105.866,174.506 107.5,175C 109.712,177.921 111.545,181.088 113,184.5C 114.798,179.518 117.965,175.851 122.5,173.5 Z"/></g>
<g><path style="opacity:1" fill="#fbb250" d="M 178.5,173.5 C 188.325,172.26 196.992,174.76 204.5,181C 202.597,183.405 200.264,185.239 197.5,186.5C 192.794,179.432 186.461,177.265 178.5,180C 175.833,182.667 175.833,185.333 178.5,188C 184.746,190.193 191.079,192.193 197.5,194C 204.049,196.266 206.549,200.766 205,207.5C 203.1,214.214 198.6,217.714 191.5,218C 181.508,220.332 172.841,217.999 165.5,211C 167.977,209.357 170.31,207.524 172.5,205.5C 175.409,208.577 178.742,211.077 182.5,213C 187.073,213.921 191.239,213.088 195,210.5C 195.756,208.191 195.256,206.191 193.5,204.5C 186.814,202.267 180.148,200.101 173.5,198C 166.062,193.423 164.562,187.257 169,179.5C 171.843,176.837 175.009,174.837 178.5,173.5 Z"/></g>
<g><path style="opacity:1" fill="#fbb14f" d="M 349.5,173.5 C 375.234,173.345 384.067,185.345 376,209.5C 366.179,219.233 355.012,221.066 342.5,215C 329.1,204.065 328.1,192.065 339.5,179C 342.767,176.871 346.101,175.038 349.5,173.5 Z"/></g>
<g><path style="opacity:1" fill="#fbb14e" d="M 422.5,222.5 C 419.833,222.5 417.167,222.5 414.5,222.5C 419.354,209.814 420.52,196.814 418,183.5C 415.293,179.965 411.793,178.798 407.5,180C 404.067,183.104 401.9,186.937 401,191.5C 400.5,200.16 400.334,208.827 400.5,217.5C 396.5,217.5 392.5,217.5 388.5,217.5C 388.5,203.167 388.5,188.833 388.5,174.5C 390.288,174.215 391.955,174.548 393.5,175.5C 395.333,178.5 397.167,181.5 399,184.5C 400.4,181.098 402.567,178.264 405.5,176C 415.108,171.411 423.275,173.244 430,181.5C 433.743,196.218 431.243,209.884 422.5,222.5 Z"/></g>
<g><path style="opacity:1" fill="#fbb250" d="M 509.5,173.5 C 516.031,172.988 522.364,173.822 528.5,176C 535.152,179.642 537.652,185.142 536,192.5C 533.592,198.468 529.092,201.634 522.5,202C 517.249,202.804 512.082,202.637 507,201.5C 506.591,207.172 509.091,211.005 514.5,213C 517.899,213.546 521.232,213.213 524.5,212C 526.688,209.812 528.855,207.645 531,205.5C 532.635,205.878 534.135,206.544 535.5,207.5C 529.323,216.735 520.656,220.235 509.5,218C 495.24,212.598 490.074,202.431 494,187.5C 497.049,180.407 502.215,175.74 509.5,173.5 Z"/></g>
<g><path style="opacity:1" fill="#fbb14f" d="M 564.5,173.5 C 569.705,173.134 574.705,173.967 579.5,176C 580.357,176.689 581.023,177.522 581.5,178.5C 579.154,181.871 576.821,185.204 574.5,188.5C 572.957,185.914 571.291,183.414 569.5,181C 566.46,178.845 563.627,179.012 561,181.5C 560,183.5 559,185.5 558,187.5C 557.5,197.494 557.334,207.494 557.5,217.5C 553.167,217.5 548.833,217.5 544.5,217.5C 544.5,203.167 544.5,188.833 544.5,174.5C 546.199,174.34 547.866,174.506 549.5,175C 551.041,177.916 552.707,180.749 554.5,183.5C 556.882,179.118 560.216,175.784 564.5,173.5 Z"/></g>
<g><path style="opacity:1" fill="#fbb250" d="M 596.5,173.5 C 604.6,172.887 612.267,174.387 619.5,178C 620.728,178.779 621.728,179.779 622.5,181C 620.791,183.043 618.791,184.877 616.5,186.5C 611.563,178.697 604.896,176.697 596.5,180.5C 593.699,183.964 594.366,186.797 598.5,189C 604.48,190.651 610.48,192.318 616.5,194C 623.128,197.145 625.295,202.312 623,209.5C 621.108,213.058 618.275,215.558 614.5,217C 603.261,220.603 593.261,218.603 584.5,211C 586.403,208.595 588.736,206.761 591.5,205.5C 597.282,213.715 604.449,215.382 613,210.5C 613.896,207.975 613.396,205.808 611.5,204C 603.987,202.274 596.654,199.94 589.5,197C 583.918,192.261 583.085,186.761 587,180.5C 589.505,177.147 592.671,174.814 596.5,173.5 Z"/></g>
<g><path style="opacity:1" fill="#fbb14e" d="M 35.5,174.5 C 39.5546,174.176 43.5546,174.509 47.5,175.5C 50.3103,184.741 52.8103,194.074 55,203.5C 57.3675,193.908 59.2009,184.242 60.5,174.5C 64.5546,174.176 68.5546,174.509 72.5,175.5C 75.4695,185.045 77.9695,194.711 80,204.5C 83.0349,194.615 85.5349,184.615 87.5,174.5C 90.1667,174.5 92.8333,174.5 95.5,174.5C 91.657,188.871 87.657,203.205 83.5,217.5C 79.5,217.5 75.5,217.5 71.5,217.5C 70.1165,208.966 67.9498,200.633 65,192.5C 62.5209,200.768 60.3542,209.101 58.5,217.5C 54.4454,217.824 50.4454,217.491 46.5,216.5C 42.8351,202.508 39.1685,188.508 35.5,174.5 Z"/></g>
<g><path style="opacity:1" fill="#fbb251" d="M 144.5,174.5 C 148.833,174.5 153.167,174.5 157.5,174.5C 157.5,188.833 157.5,203.167 157.5,217.5C 153.167,217.5 148.833,217.5 144.5,217.5C 144.5,203.167 144.5,188.833 144.5,174.5 Z"/></g>
<g><path style="opacity:1" fill="#fbb14e" d="M 267.5,174.5 C 271.833,174.5 276.167,174.5 280.5,174.5C 282.345,183.881 284.511,193.214 287,202.5C 289.866,193.339 292.033,184.005 293.5,174.5C 297.5,174.5 301.5,174.5 305.5,174.5C 307.513,184.554 309.847,194.554 312.5,204.5C 315.262,194.594 317.595,184.594 319.5,174.5C 322.518,174.335 325.518,174.502 328.5,175C 324.141,188.412 319.974,201.912 316,215.5C 312.164,217.389 307.997,218.055 303.5,217.5C 302.144,209.076 300.311,200.742 298,192.5C 295.2,200.355 292.7,208.355 290.5,216.5C 286.555,217.491 282.555,217.824 278.5,217.5C 275.309,203.071 271.643,188.737 267.5,174.5 Z"/></g>
<g><path style="opacity:1" fill="#f7f8f7" d="M 353.5,178.5 C 363.369,179.335 368.036,184.835 367.5,195C 367.634,201.485 365.634,207.152 361.5,212C 356.322,214.554 351.822,213.721 348,209.5C 343.877,201.29 343.544,192.957 347,184.5C 348.494,181.686 350.66,179.686 353.5,178.5 Z"/></g>
<g><path style="opacity:1" fill="#f7f7f5" d="M 514.5,178.5 C 523.772,178.713 527.605,183.38 526,192.5C 524.749,195.381 522.583,197.214 519.5,198C 515.5,198.667 511.5,198.667 507.5,198C 504.316,189.726 506.65,183.226 514.5,178.5 Z"/></g>
<g><path style="opacity:1" fill="#f7f8f8" d="M 458.5,179.5 C 465.146,179.639 469.313,182.972 471,189.5C 471.667,194.5 471.667,199.5 471,204.5C 468.637,212.042 463.803,214.375 456.5,211.5C 454.226,209.287 452.726,206.621 452,203.5C 450.902,196.615 451.569,189.949 454,183.5C 455.397,181.93 456.897,180.596 458.5,179.5 Z"/></g>
</svg>
