<?xml version="1.0" encoding="UTF-8"?>
<!DOCTYPE svg PUBLIC "-//W3C//DTD SVG 1.1//EN" "http://www.w3.org/Graphics/SVG/1.1/DTD/svg11.dtd">
<svg xmlns="http://www.w3.org/2000/svg" version="1.1" width="142px" height="110px" style="shape-rendering:geometricPrecision; text-rendering:geometricPrecision; image-rendering:optimizeQuality; fill-rule:evenodd; clip-rule:evenodd" xmlns:xlink="http://www.w3.org/1999/xlink">
<g><path style="opacity:1" fill="#9ea082" d="M 105.5,7.5 C 102.477,6.32238 99.4773,6.32238 96.5,7.5C 96.8333,6.83333 97.1667,6.16667 97.5,5.5C 100.618,3.99323 103.285,4.65989 105.5,7.5 Z"/></g>
<g><path style="opacity:0.741" fill="#c4c9aa" d="M 97.5,5.5 C 97.1667,6.16667 96.8333,6.83333 96.5,7.5C 93.1047,10.9015 89.438,13.9015 85.5,16.5C 88.8947,12.1024 92.8947,8.43569 97.5,5.5 Z"/></g>
<g><path style="opacity:1" fill="#8a8e58" d="M 105.5,7.5 C 105.913,9.89012 106.579,12.2235 107.5,14.5C 108.167,14.1667 108.833,13.8333 109.5,13.5C 110.524,14.8532 111.857,15.5198 113.5,15.5C 113.738,17.4044 114.738,18.7377 116.5,19.5C 117.833,20.8333 117.833,22.1667 116.5,23.5C 113.971,25.0222 111.471,26.6888 109,28.5C 108.667,27.8333 108.333,27.1667 108,26.5C 106.798,28.6775 106.298,31.0108 106.5,33.5C 103.833,33.8333 101.167,34.1667 98.5,34.5C 95.5285,31.1924 92.5285,27.859 89.5,24.5C 88.656,22.2407 86.9893,21.2407 84.5,21.5C 84.6287,19.7839 84.962,18.1172 85.5,16.5C 89.438,13.9015 93.1047,10.9015 96.5,7.5C 99.4773,6.32238 102.477,6.32238 105.5,7.5 Z"/></g>
<g><path style="opacity:1" fill="#9b9e77" d="M 105.5,7.5 C 108.5,9.83333 111.167,12.5 113.5,15.5C 111.857,15.5198 110.524,14.8532 109.5,13.5C 108.833,13.8333 108.167,14.1667 107.5,14.5C 106.579,12.2235 105.913,9.89012 105.5,7.5 Z"/></g>
<g><path style="opacity:0.804" fill="#c5cab3" d="M 113.5,15.5 C 115.262,16.2623 116.262,17.5956 116.5,19.5C 114.738,18.7377 113.738,17.4044 113.5,15.5 Z"/></g>
<g><path style="opacity:1" fill="#a8af90" d="M 85.5,16.5 C 84.962,18.1172 84.6287,19.7839 84.5,21.5C 81.97,19.6703 82.3033,18.0037 85.5,16.5 Z"/></g>
<g><path style="opacity:1" fill="#a9ab8c" d="M 84.5,21.5 C 86.9893,21.2407 88.656,22.2407 89.5,24.5C 87.5659,23.8897 85.8993,22.8897 84.5,21.5 Z"/></g>
<g><path style="opacity:1" fill="#898d55" d="M 60.5,22.5 C 65.777,21.9312 70.777,22.7645 75.5,25C 70.2704,26.1017 70.2704,26.935 75.5,27.5C 78.1859,26.9876 80.8525,26.821 83.5,27C 83.9574,27.414 84.2907,27.914 84.5,28.5C 82.5,29.1667 80.5,29.8333 78.5,30.5C 85.0497,34.2939 84.7164,35.9606 77.5,35.5C 77.5,36.8333 77.5,38.1667 77.5,39.5C 75.8958,40.287 75.2291,41.6203 75.5,43.5C 73.8008,43.6602 72.1341,43.4935 70.5,43C 71.6956,42.3457 71.6956,41.8457 70.5,41.5C 69.5,42 68.5,42.5 67.5,43C 69.1161,43.6152 70.4495,44.6152 71.5,46C 67.5787,46.203 63.7454,46.703 60,47.5C 60.6392,51.7559 61.1392,56.0893 61.5,60.5C 63.1667,60.5 64.8333,60.5 66.5,60.5C 67.0804,64.1419 67.5804,67.8086 68,71.5C 69.5545,73.9272 70.7211,73.9272 71.5,71.5C 72.1667,71.5 72.5,71.1667 72.5,70.5C 73.4767,67.7131 73.81,64.7131 73.5,61.5C 74.787,60.2317 75.787,60.565 76.5,62.5C 77.1924,61.9747 77.6924,61.3081 78,60.5C 79.3186,62.2495 79.8186,64.2495 79.5,66.5C 78.5,66.5 77.5,66.5 76.5,66.5C 78.3863,69.4554 79.3863,72.7887 79.5,76.5C 81.7812,76.0773 83.4479,76.744 84.5,78.5C 82.5856,79.1847 80.5856,79.6847 78.5,80C 79.756,80.4169 80.4226,81.2502 80.5,82.5C 80.1667,82.5 79.8333,82.5 79.5,82.5C 73.1903,83.1904 66.857,83.5237 60.5,83.5C 60.1667,83.5 59.8333,83.5 59.5,83.5C 59.5858,82.5041 59.2524,81.6708 58.5,81C 54.633,78.9894 50.633,77.1561 46.5,75.5C 46.1281,72.9783 46.9614,70.9783 49,69.5C 52.1677,71.7223 55.6677,73.0556 59.5,73.5C 59.9104,77.5597 62.2438,79.5597 66.5,79.5C 70.1012,78.7701 70.2679,77.7701 67,76.5C 64.3929,77.7897 63.0595,76.7897 63,73.5C 60.1667,72 58,69.8333 56.5,67C 53.5738,66.7822 50.7405,66.2822 48,65.5C 46.4933,66.5046 45.3267,67.838 44.5,69.5C 43.914,69.2907 43.414,68.9574 43,68.5C 44.7666,62.4379 46.2666,56.1045 47.5,49.5C 46.0499,48.1502 45.3832,46.4835 45.5,44.5C 44.1667,44.5 42.8333,44.5 41.5,44.5C 43.4755,50.6116 43.9755,56.9449 43,63.5C 39.0932,57.4256 37.5932,50.759 38.5,43.5C 39.4972,43.5299 40.1639,43.0299 40.5,42C 41.6865,38.6879 43.0198,35.5212 44.5,32.5C 46.4893,31.5186 48.4893,30.5186 50.5,29.5C 52.3289,30.4646 54.1623,31.4646 56,32.5C 57.4038,32.4907 58.5704,31.9907 59.5,31C 57.5643,30.187 55.5643,29.687 53.5,29.5C 53.5,28.1667 53.5,26.8333 53.5,25.5C 55.1992,25.6602 56.8659,25.4935 58.5,25C 59.756,24.5831 60.4226,23.7498 60.5,22.5 Z"/></g>
<g><path style="opacity:1" fill="#92956a" d="M 60.5,22.5 C 60.4226,23.7498 59.756,24.5831 58.5,25C 56.8659,25.4935 55.1992,25.6602 53.5,25.5C 53.5,26.8333 53.5,28.1667 53.5,29.5C 55.5643,29.687 57.5643,30.187 59.5,31C 58.5704,31.9907 57.4038,32.4907 56,32.5C 54.1623,31.4646 52.3289,30.4646 50.5,29.5C 48.4893,30.5186 46.4893,31.5186 44.5,32.5C 48.5467,27.1222 53.88,23.7888 60.5,22.5 Z"/></g>
<g><path style="opacity:1" fill="#9da282" d="M 86.5,26.5 C 89.1667,28.5 91.5,30.8333 93.5,33.5C 89.8333,32.5 87.5,30.1667 86.5,26.5 Z"/></g>
<g><path style="opacity:1" fill="#a5a985" d="M 116.5,23.5 C 112.433,29.0746 107.766,34.2413 102.5,39C 99.9688,38.8721 98.6354,37.3721 98.5,34.5C 101.167,34.1667 103.833,33.8333 106.5,33.5C 106.298,31.0108 106.798,28.6775 108,26.5C 108.333,27.1667 108.667,27.8333 109,28.5C 111.471,26.6888 113.971,25.0222 116.5,23.5 Z"/></g>
<g><path style="opacity:1" fill="#8e9161" d="M 60.5,22.5 C 69.6573,20.2852 78.3239,21.6185 86.5,26.5C 87.5,30.1667 89.8333,32.5 93.5,33.5C 93.9628,36.3303 94.6295,38.997 95.5,41.5C 95.0831,42.1239 94.4164,42.4573 93.5,42.5C 90.9719,41.0585 88.3053,40.5585 85.5,41C 84.0091,43.0217 84.3424,44.6883 86.5,46C 85.5838,46.3742 84.7504,46.8742 84,47.5C 82.1575,45.1656 79.9909,44.8323 77.5,46.5C 79.6281,43.8697 81.9614,41.3697 84.5,39C 83.7562,37.9614 82.7562,37.4614 81.5,37.5C 79.8007,37.5271 78.4674,38.1938 77.5,39.5C 77.5,38.1667 77.5,36.8333 77.5,35.5C 84.7164,35.9606 85.0497,34.2939 78.5,30.5C 80.5,29.8333 82.5,29.1667 84.5,28.5C 84.2907,27.914 83.9574,27.414 83.5,27C 80.8525,26.821 78.1859,26.9876 75.5,27.5C 70.2704,26.935 70.2704,26.1017 75.5,25C 70.777,22.7645 65.777,21.9312 60.5,22.5 Z"/></g>
<g><path style="opacity:0.941" fill="#a6a78b" d="M 81.5,37.5 C 79.8333,39.8333 77.8333,41.8333 75.5,43.5C 75.2291,41.6203 75.8958,40.287 77.5,39.5C 78.4674,38.1938 79.8007,37.5271 81.5,37.5 Z"/></g>
<g><path style="opacity:1" fill="#9da07f" d="M 44.5,32.5 C 43.0198,35.5212 41.6865,38.6879 40.5,42C 40.1639,43.0299 39.4972,43.5299 38.5,43.5C 39.2145,39.0666 41.2145,35.4 44.5,32.5 Z"/></g>
<g><path style="opacity:1" fill="#8a8c56" d="M 95.5,41.5 C 96.1577,42.3984 96.8243,43.3984 97.5,44.5C 99.3716,51.6886 98.5383,58.3553 95,64.5C 94.8078,66.5767 94.3078,68.5767 93.5,70.5C 90.6195,73.3294 87.6195,75.9961 84.5,78.5C 83.4479,76.744 81.7812,76.0773 79.5,76.5C 79.3863,72.7887 78.3863,69.4554 76.5,66.5C 77.5,66.5 78.5,66.5 79.5,66.5C 79.8186,64.2495 79.3186,62.2495 78,60.5C 77.6924,61.3081 77.1924,61.9747 76.5,62.5C 75.787,60.565 74.787,60.2317 73.5,61.5C 73.4825,57.6235 74.6492,56.9568 77,59.5C 77.3742,58.5838 77.8742,57.7504 78.5,57C 78.9042,54.1811 78.2375,52.1811 76.5,51C 76.7728,49.4672 77.1062,47.9672 77.5,46.5C 79.9909,44.8323 82.1575,45.1656 84,47.5C 84.7504,46.8742 85.5838,46.3742 86.5,46C 84.3424,44.6883 84.0091,43.0217 85.5,41C 88.3053,40.5585 90.9719,41.0585 93.5,42.5C 94.4164,42.4573 95.0831,42.1239 95.5,41.5 Z"/></g>
<g><path style="opacity:0.961" fill="#bcbda5" d="M 66.5,47.5 C 64.4637,48.6262 63.1303,50.2929 62.5,52.5C 62.5,50.8333 62.5,49.1667 62.5,47.5C 63.8333,47.5 65.1667,47.5 66.5,47.5 Z"/></g>
<g><path style="opacity:1" fill="#969870" d="M 77.5,46.5 C 77.1062,47.9672 76.7728,49.4672 76.5,51C 78.2375,52.1811 78.9042,54.1811 78.5,57C 77.8742,57.7504 77.3742,58.5838 77,59.5C 74.6492,56.9568 73.4825,57.6235 73.5,61.5C 73.81,64.7131 73.4767,67.7131 72.5,70.5C 72.5,70.1667 72.5,69.8333 72.5,69.5C 71.9264,66.1541 71.2598,62.8208 70.5,59.5C 73.7286,56.7435 74.8952,53.4102 74,49.5C 75.0391,48.2899 76.2058,47.2899 77.5,46.5 Z"/></g>
<g><path style="opacity:1" fill="#92946a" d="M 75.5,43.5 C 73.5749,47.0076 70.5749,48.341 66.5,47.5C 65.1667,47.5 63.8333,47.5 62.5,47.5C 62.5,49.1667 62.5,50.8333 62.5,52.5C 63.0899,53.766 63.5899,55.0993 64,56.5C 67.9801,59.0178 69.4801,62.6845 68.5,67.5C 68.0882,69.9726 69.0882,71.3059 71.5,71.5C 70.7211,73.9272 69.5545,73.9272 68,71.5C 67.5804,67.8086 67.0804,64.1419 66.5,60.5C 64.8333,60.5 63.1667,60.5 61.5,60.5C 61.1392,56.0893 60.6392,51.7559 60,47.5C 63.7454,46.703 67.5787,46.203 71.5,46C 70.4495,44.6152 69.1161,43.6152 67.5,43C 68.5,42.5 69.5,42 70.5,41.5C 71.6956,41.8457 71.6956,42.3457 70.5,43C 72.1341,43.4935 73.8008,43.6602 75.5,43.5 Z"/></g>
<g><path style="opacity:1" fill="#9ca079" d="M 93.5,33.5 C 102.223,45.6888 102.723,58.3555 95,71.5C 91.122,76.5597 86.2887,80.2264 80.5,82.5C 80.4226,81.2502 79.756,80.4169 78.5,80C 80.5856,79.6847 82.5856,79.1847 84.5,78.5C 87.6195,75.9961 90.6195,73.3294 93.5,70.5C 94.3078,68.5767 94.8078,66.5767 95,64.5C 98.5383,58.3553 99.3716,51.6886 97.5,44.5C 96.8243,43.3984 96.1577,42.3984 95.5,41.5C 94.6295,38.997 93.9628,36.3303 93.5,33.5 Z"/></g>
<g><path style="opacity:1" fill="#aeb194" d="M 37.5,60.5 C 38.3094,61.4687 39.3094,62.3021 40.5,63C 40.0426,63.414 39.7093,63.914 39.5,64.5C 41.0049,65.8415 41.6715,67.5082 41.5,69.5C 39.0257,67.1024 37.6924,64.1024 37.5,60.5 Z"/></g>
<g><path style="opacity:1" fill="#8d905f" d="M 38.5,43.5 C 37.5932,50.759 39.0932,57.4256 43,63.5C 43.9755,56.9449 43.4755,50.6116 41.5,44.5C 42.8333,44.5 44.1667,44.5 45.5,44.5C 45.3832,46.4835 46.0499,48.1502 47.5,49.5C 46.2666,56.1045 44.7666,62.4379 43,68.5C 43.414,68.9574 43.914,69.2907 44.5,69.5C 45.3267,67.838 46.4933,66.5046 48,65.5C 50.7405,66.2822 53.5738,66.7822 56.5,67C 58,69.8333 60.1667,72 63,73.5C 63.0595,76.7897 64.3929,77.7897 67,76.5C 70.2679,77.7701 70.1012,78.7701 66.5,79.5C 62.2438,79.5597 59.9104,77.5597 59.5,73.5C 55.6677,73.0556 52.1677,71.7223 49,69.5C 46.9614,70.9783 46.1281,72.9783 46.5,75.5C 44.086,74.0892 42.4194,72.0892 41.5,69.5C 41.6715,67.5082 41.0049,65.8415 39.5,64.5C 39.7093,63.914 40.0426,63.414 40.5,63C 39.3094,62.3021 38.3094,61.4687 37.5,60.5C 35.9534,54.626 36.2867,48.9594 38.5,43.5 Z"/></g>
<g><path style="opacity:0.804" fill="#babda5" d="M 37.5,69.5 C 36.8501,69.1961 36.1835,68.8627 35.5,68.5C 34.0603,69.9524 32.3936,70.9524 30.5,71.5C 31.8121,69.5212 33.4788,67.8545 35.5,66.5C 36.9185,67.0047 37.5852,68.0047 37.5,69.5 Z"/></g>
<g><path style="opacity:0.914" fill="#bfc1a4" d="M 68.5,67.5 C 69.3149,68.4293 70.1482,69.4293 71,70.5C 71.3826,69.944 71.8826,69.6107 72.5,69.5C 72.5,69.8333 72.5,70.1667 72.5,70.5C 72.5,71.1667 72.1667,71.5 71.5,71.5C 69.0882,71.3059 68.0882,69.9726 68.5,67.5 Z"/></g>
<g><path style="opacity:0.812" fill="#c2c3ab" d="M 30.5,71.5 C 30.1667,73.8333 28.8333,75.1667 26.5,75.5C 27.5,73.8333 28.8333,72.5 30.5,71.5 Z"/></g>
<g><path style="opacity:1" fill="#9fa17f" d="M 46.5,75.5 C 50.633,77.1561 54.633,78.9894 58.5,81C 59.2524,81.6708 59.5858,82.5041 59.5,83.5C 54.123,82.4424 49.7897,79.7758 46.5,75.5 Z"/></g>
<g><path style="opacity:1" fill="#8a8d57" d="M 37.5,69.5 C 38.6737,70.5137 39.3404,71.847 39.5,73.5C 40.9331,75.5582 41.5997,77.8915 41.5,80.5C 42.8333,80.5 44.1667,80.5 45.5,80.5C 45.5,81.5 45.5,82.5 45.5,83.5C 47.7033,83.9349 49.7033,83.9349 51.5,83.5C 51.0074,85.8056 50.6741,88.139 50.5,90.5C 44.8576,89.7712 42.1909,92.1045 42.5,97.5C 40.7231,97.7863 39.0564,98.4529 37.5,99.5C 35.9436,98.4529 34.2769,97.7863 32.5,97.5C 31.5987,96.7095 30.9321,95.7095 30.5,94.5C 30.2407,90.9319 28.2407,89.5985 24.5,90.5C 24.5,89.1667 24.5,87.8333 24.5,86.5C 26.1667,86.5 27.8333,86.5 29.5,86.5C 29.7229,83.8858 28.5562,82.2191 26,81.5C 25.5099,79.4546 25.6765,77.4546 26.5,75.5C 28.8333,75.1667 30.1667,73.8333 30.5,71.5C 32.3936,70.9524 34.0603,69.9524 35.5,68.5C 36.1835,68.8627 36.8501,69.1961 37.5,69.5 Z"/></g>
<g><path style="opacity:1" fill="#929467" d="M 26.5,75.5 C 25.6765,77.4546 25.5099,79.4546 26,81.5C 28.5562,82.2191 29.7229,83.8858 29.5,86.5C 27.8333,86.5 26.1667,86.5 24.5,86.5C 24.5,87.8333 24.5,89.1667 24.5,90.5C 28.2407,89.5985 30.2407,90.9319 30.5,94.5C 29.1667,94.1667 27.8333,93.8333 26.5,93.5C 17.1667,87.5 17.1667,81.5 26.5,75.5 Z"/></g>
<g><path style="opacity:1" fill="#9fa17e" d="M 39.5,73.5 C 43.2328,77.2398 47.2328,80.5732 51.5,83.5C 49.7033,83.9349 47.7033,83.9349 45.5,83.5C 45.5,82.5 45.5,81.5 45.5,80.5C 44.1667,80.5 42.8333,80.5 41.5,80.5C 41.5997,77.8915 40.9331,75.5582 39.5,73.5 Z"/></g>
<g><path style="opacity:0.945" fill="#9ea186" d="M 79.5,82.5 C 76.1354,84.0392 72.4687,84.7058 68.5,84.5C 65.6445,84.4975 62.9779,84.1641 60.5,83.5C 66.857,83.5237 73.1903,83.1904 79.5,82.5 Z"/></g>
<g><path style="opacity:1" fill="#a8aa8e" d="M 51.5,83.5 C 55.3533,86.0385 55.02,88.3719 50.5,90.5C 50.6741,88.139 51.0074,85.8056 51.5,83.5 Z"/></g>
<g><path style="opacity:1" fill="#a9aa88" d="M 50.5,90.5 C 47.016,95.4907 42.516,99.1574 37,101.5C 35.124,101.475 33.624,100.809 32.5,99.5C 32.5,98.8333 32.5,98.1667 32.5,97.5C 34.2769,97.7863 35.9436,98.4529 37.5,99.5C 39.0564,98.4529 40.7231,97.7863 42.5,97.5C 42.1909,92.1045 44.8576,89.7712 50.5,90.5 Z"/></g>
<g><path style="opacity:1" fill="#aeb496" d="M 26.5,93.5 C 27.8333,93.8333 29.1667,94.1667 30.5,94.5C 30.9321,95.7095 31.5987,96.7095 32.5,97.5C 32.5,98.1667 32.5,98.8333 32.5,99.5C 30.1667,97.8333 28.1667,95.8333 26.5,93.5 Z"/></g>
</svg>
